<svg width="20" height="20" viewBox="0 0 20 20" fill="none" xmlns="http://www.w3.org/2000/svg">
  <path d="M16.6665 2.5H3.33317C2.89114 2.5 2.46722 2.67559 2.15466 2.98816C1.8421 3.30072 1.6665 3.72464 1.6665 4.16667V9.16667C1.6665 11.3768 2.54448 13.4964 4.10728 15.0592C4.8811 15.833 5.79976 16.4469 6.81081 16.8657C7.82186 17.2845 8.90549 17.5 9.99984 17.5C12.21 17.5 14.3296 16.622 15.8924 15.0592C17.4552 13.4964 18.3332 11.3768 18.3332 9.16667V4.16667C18.3332 3.72464 18.1576 3.30072 17.845 2.98816C17.5325 2.67559 17.1085 2.5 16.6665 2.5Z" stroke="#166A39" stroke-width="2" stroke-linecap="round" stroke-linejoin="round"/>
  <path d="M6.6665 8.33325L9.99984 11.6666L13.3332 8.33325" stroke="#166A39" stroke-width="2" stroke-linecap="round" stroke-linejoin="round"/>
</svg>
