<svg xmlns="http://www.w3.org/2000/svg" width="423" height="238" fill="none" viewBox="0 0 423 238">
  <path fill="#1E2E4D"
        d="M294.286 136.897c0-5.236-4.244-9.481-9.478-9.481s-9.478 4.245-9.478 9.481 4.244 9.481 9.478 9.481 9.478-4.245 9.478-9.481Z"/>
  <path stroke="#1E2E4D"
        d="M205.749 207.46c0 114.024 92.406 206.46 206.394 206.46s206.394-92.436 206.394-206.46C618.537 93.435 526.131 1 412.143 1S205.749 93.435 205.749 207.46Z"/>
  <path stroke="#1E2E4D"
        d="M266.353 207.46c0 80.543 65.273 145.836 145.79 145.836 80.518 0 145.79-65.293 145.79-145.836S492.661 61.623 412.143 61.623c-80.517 0-145.79 65.294-145.79 145.837Z"/>
  <path fill="#1E2E4D"
        d="M491.899 207.46c0-44.059-35.711-79.781-79.756-79.781s-79.756 35.722-79.756 79.781c0 44.059 35.705 79.781 79.756 79.781s79.756-35.722 79.756-79.781Z"
        opacity=".5"/>
</svg>
