<svg xmlns="http://www.w3.org/2000/svg" width="1204" height="947" fill="none" viewBox="0 0 1204 947">
  <path fill="#fff"
        d="M1103.59 821.591c0-11.102-8.99-20.103-20.09-20.103s-20.1 9.001-20.1 20.103c0 11.102 9 20.104 20.1 20.104 11.1 0 20.09-9.002 20.09-20.104Z"/>
  <path fill="#fff" stroke="#fff" stroke-width=".25"
        d="M1103.59 821.591c0-11.102-8.99-20.103-20.09-20.103s-20.1 9.001-20.1 20.103c0 11.102 9 20.104 20.1 20.104 11.1 0 20.09-9.002 20.09-20.104Z"/>
  <path fill="#fff"
        d="M622.876 289.152c0-11.103-8.998-20.104-20.097-20.104-11.099 0-20.097 9.001-20.097 20.104 0 11.102 8.998 20.103 20.097 20.103 11.099 0 20.097-9.001 20.097-20.103Z"/>
  <path stroke="#fff"
        d="M435.145 438.772c0 241.775 195.935 437.773 437.633 437.773 241.702 0 437.632-195.998 437.632-437.773C1310.41 196.997 1114.48 1 872.778 1 631.08 1 435.145 196.997 435.145 438.772Z"/>
  <path stroke="#fff"
        d="M563.648 438.772C563.648 609.554 702.05 748 872.778 748c170.732 0 309.132-138.446 309.132-309.228s-138.4-309.228-309.132-309.228c-170.728 0-309.13 138.446-309.13 309.228ZM1058.22 846.881c13.96 13.964 36.59 13.964 50.55 0 13.96-13.965 13.96-36.605 0-50.57-13.96-13.964-36.59-13.964-50.55 0-13.96 13.965-13.96 36.605 0 50.57ZM1 1002.43c0 187.08 151.608 338.73 338.626 338.73 187.019 0 338.627-151.65 338.627-338.73 0-187.078-151.608-338.734-338.627-338.734C152.608 663.696 1 815.352 1 1002.43Z"/>
  <path fill="#fff"
        d="M1041.89 438.772c0-93.422-75.72-169.166-169.112-169.166-93.393 0-169.112 75.744-169.112 169.166s75.706 169.166 169.112 169.166c93.405 0 169.112-75.744 169.112-169.166Z"
        opacity=".5"/>
</svg>
