<svg xmlns="http://www.w3.org/2000/svg" width="681" height="176" fill="none" viewBox="0 0 681 176">
  <path fill="#fff"
        d="M15.21 174.174H.55V69.359h39.667c6.89 0 12.245.336 15.894.998 5.137.853 9.522 2.513 13.016 4.927 3.495 2.422 6.354 5.851 8.478 10.206 2.124 4.346 3.204 9.182 3.204 14.371 0 8.909-2.877 16.567-8.56 22.736-5.69 6.187-16.056 9.326-30.825 9.326H15.21v42.251Zm0-55.415h26.423c8.732 0 15.004-1.633 18.635-4.845 3.613-3.202 5.446-7.784 5.446-13.626 0-4.228-1.08-7.903-3.213-10.906-2.124-2.994-4.965-4.999-8.442-5.96-2.269-.599-6.544-.907-12.717-.907H15.2v36.235l.01.009ZM140.491 175.943c-9.83 0-18.735-2.404-26.478-7.158-7.742-4.745-13.697-11.323-17.682-19.542-3.985-8.202-6-16.993-6-26.138 0-17.283 4.72-31.019 14.024-40.817 9.313-9.808 21.495-14.78 36.209-14.78 9.631 0 18.444 2.332 26.187 6.941 7.743 4.609 13.734 11.123 17.8 19.36 4.058 8.22 6.109 17.674 6.109 28.089s-2.16 20.15-6.435 28.488c-4.276 8.365-10.421 14.779-18.273 19.079-7.833 4.292-16.393 6.469-25.461 6.469v.009Zm.145-95.688c-9.576 0-17.927 3.33-24.825 9.908-6.899 6.568-10.394 17.727-10.394 33.16 0 12.347 3.359 22.2 9.985 29.286 6.617 7.076 15.032 10.669 25.017 10.669 9.984 0 18.662-3.62 25.234-10.769 6.581-7.158 9.912-17.474 9.912-30.665 0-8.356-1.434-15.741-4.248-21.965-2.814-6.196-6.98-11.068-12.381-14.48-5.41-3.41-11.564-5.144-18.3-5.144ZM244.669 175.943c-9.422 0-17.437-1.397-23.828-4.146-6.408-2.758-11.509-6.977-15.158-12.538-3.649-5.553-5.592-11.912-5.782-18.916v-.427l13.833-1.206.055.435c.599 5.099 2.024 9.336 4.211 12.593 2.188 3.239 5.637 5.906 10.266 7.92 4.648 2.023 9.958 3.048 15.776 3.048 5.165 0 9.786-.78 13.734-2.304 3.921-1.524 6.871-3.629 8.769-6.26 1.897-2.622 2.859-5.525 2.859-8.628 0-3.103-.926-5.924-2.741-8.265-1.834-2.35-4.911-4.364-9.168-5.988-2.76-1.07-8.968-2.776-18.454-5.053-9.54-2.287-16.33-4.482-20.178-6.523-5.011-2.622-8.805-5.934-11.274-9.835-2.469-3.901-3.722-8.338-3.722-13.173 0-5.308 1.525-10.343 4.539-14.952 3.013-4.618 7.47-8.165 13.252-10.551 5.746-2.377 12.227-3.575 19.253-3.575 7.734 0 14.65 1.261 20.569 3.756 5.945 2.504 10.574 6.242 13.779 11.123 3.195 4.863 4.937 10.452 5.183 16.603l.018.435-14.07 1.062-.045-.436c-.69-6.414-3.059-11.322-7.035-14.58-3.985-3.265-9.985-4.925-17.827-4.925-7.843 0-14.206 1.506-17.909 4.472-3.677 2.94-5.537 6.532-5.537 10.67 0 3.583 1.307 6.568 3.894 8.872 2.578 2.35 9.494 4.809 20.541 7.304 11.156 2.522 18.926 4.763 23.101 6.659 6.1 2.813 10.675 6.432 13.589 10.76 2.922 4.337 4.402 9.39 4.402 15.033 0 5.643-1.625 10.933-4.82 15.877-3.204 4.945-7.861 8.837-13.842 11.577-5.964 2.73-12.772 4.118-20.224 4.118l-.009-.036ZM338.635 175.943c-9.422 0-17.437-1.397-23.828-4.146-6.408-2.758-11.509-6.977-15.158-12.538-3.649-5.553-5.592-11.912-5.783-18.916v-.427l13.834-1.206.054.435c.599 5.099 2.025 9.336 4.212 12.593 2.188 3.239 5.637 5.906 10.266 7.92 4.648 2.023 9.958 3.048 15.776 3.048 5.165 0 9.785-.78 13.734-2.304 3.921-1.524 6.871-3.629 8.768-6.26 1.897-2.631 2.86-5.534 2.86-8.628 0-3.094-.926-5.915-2.742-8.265-1.833-2.35-4.91-4.364-9.167-5.988-2.76-1.07-8.969-2.776-18.454-5.053-9.54-2.287-16.33-4.482-20.179-6.523-5.01-2.622-8.804-5.934-11.273-9.835-2.469-3.901-3.722-8.338-3.722-13.173 0-5.308 1.525-10.343 4.539-14.952 3.013-4.618 7.47-8.165 13.252-10.551 5.746-2.377 12.227-3.575 19.253-3.575 7.733 0 14.65 1.261 20.559 3.756 5.946 2.504 10.575 6.242 13.779 11.123 3.195 4.863 4.938 10.452 5.183 16.603l.018.435-14.069 1.062-.045-.436c-.69-6.414-3.059-11.322-7.035-14.58-3.985-3.265-9.985-4.925-17.828-4.925-7.842 0-14.205 1.506-17.909 4.472-3.676 2.94-5.537 6.532-5.537 10.67 0 3.583 1.307 6.568 3.894 8.872 2.578 2.35 9.495 4.809 20.542 7.304 11.156 2.522 18.926 4.763 23.101 6.659 6.1 2.813 10.675 6.432 13.588 10.76 2.923 4.337 4.403 9.39 4.403 15.033 0 5.643-1.625 10.933-4.82 15.877-3.204 4.945-7.861 8.837-13.843 11.577-5.963 2.73-12.771 4.118-20.223 4.118v-.036ZM409.508 174.174H394.84V69.359h14.668v104.815ZM469.481 174.174h-40.094V69.359h39.458c7.97 0 14.46 1.07 19.298 3.194 4.856 2.132 8.723 5.462 11.483 9.889 2.75 4.427 4.148 9.118 4.148 13.953 0 4.509-1.244 8.81-3.685 12.784-2.279 3.701-5.674 6.777-10.112 9.154 5.845 1.905 10.438 5.017 13.67 9.254 3.422 4.5 5.165 9.889 5.165 16.013 0 4.917-1.053 9.544-3.132 13.772-2.079 4.227-4.693 7.539-7.761 9.834-3.059 2.296-6.944 4.047-11.546 5.217-4.575 1.161-10.257 1.751-16.883 1.751h-.009Zm-25.434-13.173h25.434c4.393 0 7.515-.164 9.276-.49 3.105-.554 5.719-1.488 7.789-2.776 2.051-1.271 3.757-3.158 5.092-5.607 1.325-2.45 2.006-5.326 2.006-8.537 0-3.766-.971-7.077-2.896-9.844-1.915-2.758-4.62-4.727-8.033-5.852-3.458-1.134-8.532-1.715-15.068-1.715h-23.582v34.821h-.018Zm0-47.985h22.03c6.027 0 10.402-.399 12.989-1.188 3.386-1.007 5.964-2.695 7.67-5.008 1.707-2.323 2.569-5.28 2.569-8.8 0-3.52-.808-6.333-2.414-8.864-1.589-2.514-3.895-4.265-6.845-5.199-3.022-.953-8.296-1.433-15.676-1.433h-20.323v30.492ZM589.217 174.174h-65.864V69.359h14.669v91.651h51.204v13.173l-.009-.009ZM680.55 174.174h-78.489V69.359h76.075v13.174H616.72v30.919h57.512v13.1H616.72v34.458h63.821v13.173l.009-.009ZM382.622 47.404c-.88 0-1.724-.318-2.523-1.053-3.35-3.093.989-7.784 6-13.21 4.82-5.216 8.632-9.335 11.981-6.24 1.553 1.433 1.616 3.356.209 5.878-1.225 2.196-3.44 4.663-5.8 7.213-3.377 3.656-6.844 7.403-9.876 7.403l.009.009ZM395.775 22.219c-3.123 0-6.853-3.91-10.23-7.449-4.439-4.654-9.023-9.462-5.564-12.765 3.304-3.148 7.706 1.47 12.808 6.814 2.459 2.576 4.593 4.808 5.754 6.786 1.344 2.286 1.253 4.1-.272 5.552-.771.735-1.607 1.053-2.496 1.053v.009ZM421 47.404c-.98 0-2.06-.39-3.25-1.17-2.033-1.334-4.293-3.702-6.626-6.224-2.36-2.55-4.575-5.017-5.8-7.213-1.407-2.522-1.343-4.445.209-5.879 1.543-1.433 3.367-1.406 5.564.073 1.906 1.288 3.994 3.547 6.417 6.16 5.02 5.425 9.35 10.107 6 13.21-.753.698-1.588 1.043-2.514 1.043ZM407.856 22.219c-.934 0-1.76-.354-2.496-1.053-1.525-1.451-1.615-3.275-.272-5.552 1.162-1.978 3.286-4.21 5.755-6.786 5.101-5.344 9.513-9.962 12.808-6.814 1.534 1.46 1.606 3.339.236 5.761-1.199 2.114-3.432 4.518-5.801 7.004-2.396 2.513-4.729 4.881-6.844 6.242-1.262.807-2.387 1.216-3.386 1.216v-.018Z"/>
</svg>
