<svg width="360" height="360" xmlns="http://www.w3.org/2000/svg" xmlns:xlink="http://www.w3.org/1999/xlink" xml:space="preserve" overflow="hidden"><defs><clipPath id="clip0"><rect x="9" y="9" width="360" height="360"/></clipPath><clipPath id="clip1"><rect x="8" y="36" width="361" height="333"/></clipPath></defs><g clip-path="url(#clip0)" transform="translate(-9 -9)"><g clip-path="url(#clip1)"><g><path d="M96.0109 1099.45 3.47179 1099.45 3.47179 437.818 253.864 437.818C297.356 437.818 331.159 439.939 354.192 444.118 386.619 449.503 414.299 459.981 436.354 475.219 458.416 490.508 476.463 512.153 489.87 539.643 503.277 567.076 510.095 597.603 510.095 630.358 510.095 686.595 491.934 734.935 456.061 773.875 420.144 812.93 354.71 832.744 261.483 832.744L96.0109 832.744 96.0109 1099.45ZM96.0109 749.649 262.802 749.649C317.922 749.649 357.513 739.341 380.433 719.065 403.239 698.853 414.81 669.93 414.81 633.053 414.81 606.365 407.993 583.167 394.528 564.211 381.121 545.311 363.188 532.655 341.239 526.589 326.917 522.808 299.931 520.864 260.965 520.864L95.9478 520.864 95.9478 749.592 96.0109 749.649ZM886.829 1110.61C824.778 1110.61 768.567 1095.44 719.69 1065.43 670.82 1035.48 633.23 993.956 608.075 942.074 582.92 890.3 570.201 834.809 570.201 777.082 570.201 667.986 599.995 581.279 658.726 519.431 717.512 457.519 794.409 426.134 887.289 426.134 948.084 426.134 1003.71 440.855 1052.59 469.948 1101.47 499.042 1139.28 540.161 1164.95 592.155 1190.57 644.043 1203.51 703.72 1203.51 769.463 1203.51 835.206 1189.88 896.657 1162.89 949.289 1135.9 1002.09 1097.11 1042.58 1047.55 1069.72 998.103 1096.82 944.069 1110.56 886.829 1110.56L886.829 1110.61ZM887.744 506.598C827.297 506.598 774.582 527.618 731.04 569.141 687.491 610.6 665.429 681.04 665.429 778.458 665.429 856.397 686.632 918.592 728.458 963.322 770.227 1007.99 823.345 1030.67 886.374 1030.67 949.397 1030.67 1004.18 1007.82 1045.66 962.691 1087.2 917.507 1108.23 852.388 1108.23 769.122 1108.23 716.376 1099.18 669.759 1081.41 630.471 1063.65 591.36 1037.35 560.606 1003.26 539.069 969.11 517.543 930.264 506.598 887.744 506.598ZM1544.44 1110.61C1484.96 1110.61 1434.37 1101.8 1394.03 1084.44 1353.58 1067.03 1321.38 1040.4 1298.34 1005.3 1275.31 970.246 1263.04 930.106 1261.85 885.894L1261.85 883.199 1349.16 875.586 1349.51 878.332C1353.29 910.519 1362.29 937.264 1376.09 957.824 1389.9 978.269 1411.68 995.104 1440.9 1007.82 1470.24 1020.59 1503.75 1027.06 1540.48 1027.06 1573.08 1027.06 1602.25 1022.13 1627.17 1012.51 1651.92 1002.89 1670.55 989.606 1682.53 972.999 1694.5 956.448 1700.57 938.123 1700.57 918.536 1700.57 898.948 1694.73 881.141 1683.27 866.364 1671.69 851.53 1652.27 838.817 1625.4 828.566 1607.98 821.811 1568.79 811.043 1508.91 796.669 1448.69 782.233 1405.83 768.377 1381.54 755.494 1349.91 738.943 1325.96 718.036 1310.37 693.412 1294.79 668.787 1286.88 640.779 1286.88 610.259 1286.88 576.753 1296.51 544.971 1315.53 515.877 1334.55 486.727 1362.69 464.337 1399.18 449.275 1435.45 434.271 1476.36 426.709 1520.72 426.709 1569.53 426.709 1613.19 434.669 1650.55 450.418 1688.08 466.224 1717.3 489.82 1737.53 520.63 1757.7 551.327 1768.7 586.607 1770.25 625.434L1770.36 628.18 1681.55 634.884 1681.26 632.132C1676.91 591.644 1661.95 560.663 1636.86 540.097 1611.7 519.488 1573.83 509.009 1524.33 509.009 1474.82 509.009 1434.65 518.516 1411.28 537.238 1388.07 555.796 1376.33 578.47 1376.33 604.591 1376.33 627.208 1384.58 646.05 1400.91 660.594 1417.18 675.428 1460.84 690.95 1530.57 706.699 1600.99 722.619 1650.04 736.765 1676.39 748.733 1714.9 766.49 1743.77 789.334 1762.17 816.654 1780.61 844.031 1789.96 875.927 1789.96 911.548 1789.96 947.168 1779.7 980.561 1759.53 1011.77 1739.31 1042.98 1709.91 1067.55 1672.15 1084.85 1634.51 1102.08 1591.53 1110.84 1544.49 1110.84L1544.44 1110.61ZM2137.58 1110.61C2078.11 1110.61 2027.51 1101.8 1987.17 1084.44 1946.72 1067.03 1914.52 1040.4 1891.49 1005.3 1868.46 970.246 1856.19 930.106 1854.99 885.894L1854.99 883.199 1942.31 875.586 1942.65 878.332C1946.43 910.519 1955.43 937.264 1969.24 957.824 1983.05 978.269 2004.82 995.104 2034.04 1007.82 2063.38 1020.59 2096.9 1027.06 2133.63 1027.06 2166.23 1027.06 2195.39 1022.13 2220.32 1012.51 2245.07 1002.89 2263.69 989.606 2275.67 972.999 2287.64 956.391 2293.72 938.066 2293.72 918.536 2293.72 899.005 2287.87 881.198 2276.41 866.364 2264.84 851.53 2245.42 838.817 2218.55 828.566 2201.12 821.811 2161.93 811.043 2102.06 796.669 2041.84 782.233 1998.98 768.377 1974.68 755.494 1943.06 738.943 1919.11 718.036 1903.52 693.412 1887.94 668.787 1880.03 640.779 1880.03 610.259 1880.03 576.753 1889.65 544.971 1908.68 515.877 1927.7 486.727 1955.83 464.337 1992.33 449.275 2028.6 434.271 2069.51 426.709 2113.86 426.709 2162.67 426.709 2206.34 434.669 2243.64 450.418 2281.17 466.224 2310.39 489.82 2330.61 520.63 2350.78 551.327 2361.79 586.607 2363.33 625.434L2363.45 628.18 2274.64 634.884 2274.35 632.132C2270 591.644 2255.04 560.663 2229.95 540.097 2204.79 519.488 2166.92 509.009 2117.41 509.009 2067.91 509.009 2027.74 518.516 2004.36 537.238 1981.16 555.796 1969.41 578.47 1969.41 604.591 1969.41 627.208 1977.66 646.05 1993.99 660.594 2010.26 675.428 2053.93 690.95 2123.66 706.699 2194.08 722.619 2243.13 736.765 2269.48 748.733 2307.99 766.49 2336.86 789.334 2355.25 816.654 2373.7 844.031 2383.05 875.927 2383.05 911.548 2383.05 947.168 2372.79 980.561 2352.62 1011.77 2332.4 1042.98 2303 1067.55 2265.24 1084.85 2227.6 1102.08 2184.62 1110.84 2137.58 1110.84L2137.58 1110.61ZM2584.96 1099.45 2492.37 1099.45 2492.37 437.818 2584.96 437.818 2584.96 1099.45ZM2963.53 1099.45 2710.44 1099.45 2710.44 437.818 2959.51 437.818C3009.82 437.818 3050.79 444.573 3081.33 457.98 3111.98 471.438 3136.39 492.458 3153.82 520.403 3171.17 548.348 3180 577.959 3180 608.479 3180 636.942 3172.15 664.091 3156.74 689.176 3142.35 712.538 3120.92 731.955 3092.91 746.96 3129.8 758.985 3158.8 778.629 3179.2 805.374 3200.8 833.78 3211.8 867.797 3211.8 906.454 3211.8 937.492 3205.15 966.699 3192.03 993.387 3178.91 1020.07 3162.41 1040.98 3143.04 1055.46 3123.73 1069.96 3099.21 1081.01 3070.16 1088.39 3041.28 1095.72 3005.41 1099.45 2963.59 1099.45L2963.53 1099.45ZM2802.98 1016.3 2963.53 1016.3C2991.26 1016.3 3010.97 1015.26 3022.08 1013.2 3041.68 1009.7 3058.18 1003.81 3071.25 995.679 3084.2 987.656 3094.97 975.744 3103.39 960.286 3111.76 944.82 3116.05 926.666 3116.05 906.397 3116.05 882.625 3109.93 861.724 3097.77 844.258 3085.69 826.849 3068.61 814.42 3047.07 807.318 3025.24 800.16 2993.21 796.493 2951.95 796.493L2803.09 796.493 2803.09 1016.3 2802.98 1016.3ZM2802.98 713.397 2942.04 713.397C2980.09 713.397 3007.7 710.878 3024.03 705.898 3045.41 699.541 3061.68 688.886 3072.45 674.285 3083.22 659.622 3088.67 640.956 3088.67 618.737 3088.67 596.517 3083.57 578.761 3073.43 562.784 3063.4 546.915 3048.84 535.862 3030.22 529.966 3011.14 523.95 2977.85 520.921 2931.27 520.921L2802.98 520.921 2802.98 713.397ZM3719.34 1099.45 3303.59 1099.45 3303.59 437.818 3396.18 437.818 3396.18 1016.35 3719.4 1016.35 3719.4 1099.5 3719.34 1099.45ZM4295.87 1099.45 3800.42 1099.45 3800.42 437.818 4280.63 437.818 4280.63 520.977 3892.95 520.977 3892.95 716.149 4255.99 716.149 4255.99 798.841 3892.95 798.841 3892.95 1016.35 4295.81 1016.35 4295.81 1099.5 4295.87 1099.45ZM2415.24 299.231C2409.69 299.231 2404.36 297.223 2399.32 292.584 2378.17 273.06 2405.56 243.449 2437.19 209.198 2467.62 176.272 2491.68 150.272 2512.82 169.809 2522.62 178.854 2523.02 190.993 2514.14 206.913 2506.41 220.775 2492.43 236.347 2477.53 252.444 2456.21 275.522 2434.33 299.174 2415.19 299.174L2415.24 299.231ZM2498.27 140.254C2478.56 140.254 2455.01 115.573 2433.7 93.2334 2405.68 63.8558 2376.74 33.506 2398.57 12.6563 2419.43-7.21502 2447.22 21.9354 2479.42 55.6686 2494.94 71.9293 2508.42 86.0184 2515.74 98.5042 2524.23 112.934 2523.65 124.385 2514.03 133.55 2509.16 138.19 2503.88 140.197 2498.27 140.197L2498.27 140.254ZM2657.5 299.231C2651.31 299.231 2644.5 296.769 2636.99 291.845 2624.15 283.425 2609.89 268.477 2595.16 252.557 2580.26 236.461 2566.28 220.888 2558.55 207.026 2549.67 191.106 2550.07 178.968 2559.87 169.916 2569.61 160.87 2581.12 161.041 2594.99 170.377 2607.02 178.507 2620.2 192.767 2635.5 209.261 2667.18 243.505 2694.52 273.06 2673.37 292.647 2668.62 297.053 2663.35 299.231 2657.5 299.231ZM2574.53 140.254C2568.64 140.254 2563.42 138.02 2558.77 133.607 2549.15 124.448 2548.58 112.934 2557.06 98.5611 2564.39 86.0752 2577.8 71.9861 2593.39 55.7254 2625.58 21.9922 2653.44-7.15821 2674.23 12.7131 2683.92 21.9291 2684.37 33.79 2675.72 49.0785 2668.16 62.4229 2654.06 77.5977 2639.11 93.2903 2623.98 109.153 2609.25 124.101 2595.9 132.692 2587.94 137.786 2580.84 140.368 2574.53 140.368L2574.53 140.254Z" fill="#1E2E4D" transform="matrix(1.00007 0 0 1 -2347.04 36.33)"/></g></g></g></svg>